<svg width="1491" height="1491" viewBox="0 0 1491 1491" fill="none" xmlns="http://www.w3.org/2000/svg">
<g filter="url(#filter0_d_0_1)">
<rect x="4" width="1483" height="1483" rx="180" fill="#8BABF1"/>
</g>
<path d="M608 437H1325C1365.87 437 1399 470.131 1399 511V1249C1399 1289.87 1365.87 1323 1325 1323H608V437Z" fill="white" fill-opacity="0.59"/>
<rect x="608" y="742" width="791" height="49" fill="white" fill-opacity="0.24"/>
<rect x="877" y="742" width="581" height="49" transform="rotate(90 877 742)" fill="white" fill-opacity="0.24"/>
<rect x="1167" y="742" width="581" height="49" transform="rotate(90 1167 742)" fill="white" fill-opacity="0.24"/>
<rect x="608" y="1032" width="791" height="49" fill="white" fill-opacity="0.24"/>
<path d="M96 315C96 249.83 148.83 197 214 197H887V1083H214C148.83 1083 96 1030.17 96 965V315Z" fill="white"/>
<rect x="96" y="502" width="791" height="49" fill="#8BABF1"/>
<rect x="365" y="502" width="581" height="49" transform="rotate(90 365 502)" fill="#8BABF1"/>
<rect x="655" y="506" width="581" height="49" transform="rotate(90 655 506)" fill="#8BABF1"/>
<rect x="96" y="792" width="791" height="49" fill="#8BABF1"/>
<path d="M346.171 1016.01L347.175 983.404L431.893 1014.32C583.283 1069.57 698.161 1195.25 739.611 1350.99L760.995 1431.33L618.898 1390.36C453.127 1342.56 340.856 1188.45 346.171 1016.01Z" fill="#82B56A" stroke="#979797"/>
<path d="M747.237 1278.96L789.503 1449.81L988.111 1301.15C1107.26 1211.97 1179.8 1073.78 1185.53 925.067L1194.76 685.35L907.942 871.801C773.124 959.441 708.621 1122.86 747.237 1278.96Z" fill="#82B56A" stroke="#979797"/>
<path d="M796.577 1454.94L997.426 1285.52C1094.25 1203.85 1156 1088.1 1169.92 962.199L1199.11 698.136L902.328 1097.37L830.041 1205.47L796.577 1454.94Z" fill="#31A062" fill-opacity="0.24"/>
<path d="M773.407 1436.87L701 1390V1390C483.754 1403.12 313.877 1203.62 362.949 991.578V991.578L653.829 1272.38L731.062 1355.95L773.407 1436.87Z" fill="#31A062" fill-opacity="0.21"/>
<defs>
<filter id="filter0_d_0_1" x="0" y="0" width="1491" height="1491" filterUnits="userSpaceOnUse" color-interpolation-filters="sRGB">
<feFlood flood-opacity="0" result="BackgroundImageFix"/>
<feColorMatrix in="SourceAlpha" type="matrix" values="0 0 0 0 0 0 0 0 0 0 0 0 0 0 0 0 0 0 127 0" result="hardAlpha"/>
<feOffset dy="4"/>
<feGaussianBlur stdDeviation="2"/>
<feComposite in2="hardAlpha" operator="out"/>
<feColorMatrix type="matrix" values="0 0 0 0 0 0 0 0 0 0 0 0 0 0 0 0 0 0 0.25 0"/>
<feBlend mode="normal" in2="BackgroundImageFix" result="effect1_dropShadow_0_1"/>
<feBlend mode="normal" in="SourceGraphic" in2="effect1_dropShadow_0_1" result="shape"/>
</filter>
</defs>
</svg>
